# xmcd
#
# Track frame offsets:
# 180
# 13991
# 24415
# 36041
# 46042
# 57126
# 68070
# 78276
# 92524
# 103168
# 116687
# 128437
# 141963
# 154654
# 165358
# 175474
# 185528
# 196101
# 207476
# 220923
# 234453
# 244988
# 255608
# 265073
#
# Disc length: 3654 seconds
#
# Revision: 0
# Processed by: cddbd v1.4PL0 Copyright (c) Steve Scherf et al.
# Submitted via: Audion 3.0.2 (http://www.panic.com/audion/)
#
DISCID=440e4418
DTITLE=Ben E. King - Spanish Harlem - Don't play that song
DYEAR=1900
DGENRE=
TTITLE0=Amor
TTITLE1=Sway
TTITLE2=Come closer to me
TTITLE3=Perfidia
TTITLE4=Grenada
TTITLE5=Sweet and gentle
TTITLE6=Quizas, quizas, quizas (perhaps, perhaps, perhaps)
TTITLE7=Frenesi
TTITLE8=Souvenir of Mexico
TTITLE9=besame mucho
TTITLE10=Love me, love me
TTITLE11=Spanish Harlem
TTITLE12=Don't play that song
TTITLE13=Ecstasy
TTITLE14=On the horizon
TTITLE15=Show me the way
TTITLE16=Here comes the night
TTITLE17=First taste of love
TTITLE18=Stand by me
TTITLE19=Yes
TTITLE20=Young boy blues
TTITLE21=The hermit of misty mountain
TTITLE22=I promise love
TTITLE23=Brace yourself
EXTD=
EXTT0=
EXTT1=
EXTT2=
EXTT3=
EXTT4=
EXTT5=
EXTT6=
EXTT7=
EXTT8=
EXTT9=
EXTT10=
EXTT11=
EXTT12=
EXTT13=
EXTT14=
EXTT15=
EXTT16=
EXTT17=
EXTT18=
EXTT19=
EXTT20=
EXTT21=
EXTT22=
EXTT23=
PLAYORDER=
